# xmcd
#
# Track frame offsets:
#   150
#   13605
#   30964
#   48424
#   68189
#   86309
#   138223
#   162602
#   197047
#   226137
#   239302
#   268777
#
# Disc length: 3898 seconds
#
# Revision: 0
# Processed by: cddbd v1.4PL0 Copyright (c) Steve Scherf et al.
# Submitted via: uFREEDB 1.6.0
#
DISCID=950f380c
DTITLE=Tom Waits - Nighthawks At The Diner
DYEAR=1900
DGENRE=Blues
TTITLE0=Opening Intro.
TTITLE1=Emotional Weather Report
TTITLE2=On A Foggy Night
TTITLE3=Eggs and Sausage (In A Cadillac With Susan Michelson
TTITLE4=Better Off Without A Wife
TTITLE5=Nighthawk Postcards (From Easy Street)
TTITLE6=Warm Beer And Cold Women
TTITLE7=Putnam County
TTITLE8=Spare Parts I (A Nocturnal Emission)
TTITLE9=Nobody
TTITLE10=Big Joe And Phantom 309
TTITLE11=Spare Parts II and Closing
EXTD=
EXTT0=
EXTT1=
EXTT2=
EXTT3=
EXTT4=
EXTT5=
EXTT6=
EXTT7=
EXTT8=
EXTT9=
EXTT10=
EXTT11=
PLAYORDER=
